<svg width="162" height="155" viewBox="0 0 162 155" fill="none" xmlns="http://www.w3.org/2000/svg">
<ellipse cx="81" cy="77.5" rx="81" ry="77.5" fill="#4A4E69"/>
<path d="M129 49.0312V54.0312" stroke="#F2E9E4" stroke-width="2" stroke-linecap="round" stroke-linejoin="round"/>
<path d="M129 69.0312V74.0312" stroke="#F2E9E4" stroke-width="2" stroke-linecap="round" stroke-linejoin="round"/>
<path d="M120.162 52.6937L123.7 56.2312" stroke="#F2E9E4" stroke-width="2" stroke-linecap="round" stroke-linejoin="round"/>
<path d="M134.3 66.8313L137.838 70.3688" stroke="#F2E9E4" stroke-width="2" stroke-linecap="round" stroke-linejoin="round"/>
<path d="M116.5 61.5312H121.5" stroke="#F2E9E4" stroke-width="2" stroke-linecap="round" stroke-linejoin="round"/>
<path d="M136.5 61.5312H141.5" stroke="#F2E9E4" stroke-width="2" stroke-linecap="round" stroke-linejoin="round"/>
<path d="M120.162 70.3688L123.7 66.8313" stroke="#F2E9E4" stroke-width="2" stroke-linecap="round" stroke-linejoin="round"/>
<path d="M134.3 56.2312L137.838 52.6937" stroke="#F2E9E4" stroke-width="2" stroke-linecap="round" stroke-linejoin="round"/>
<path d="M58.32 85.792V105.248C56.528 106.272 54.3947 107.083 51.92 107.68C49.4453 108.235 46.928 108.512 44.368 108.512C40.6987 108.512 37.392 107.936 34.448 106.784C31.5467 105.632 29.0507 104.053 26.96 102.048C24.8693 100 23.2693 97.5893 22.16 94.816C21.0507 92.0427 20.496 89.0133 20.496 85.728C20.496 82.1013 21.136 78.7947 22.416 75.808C23.7387 72.7787 25.5093 70.176 27.728 68C29.9893 65.824 32.5707 64.1387 35.472 62.944C38.416 61.7067 41.5307 61.088 44.816 61.088C47.0347 61.088 49.36 61.3867 51.792 61.984C54.224 62.5387 56.336 63.3493 58.128 64.416L54.736 70.112C54.096 69.728 53.3493 69.3867 52.496 69.088C51.6853 68.7893 50.832 68.5333 49.936 68.32C49.04 68.1067 48.144 67.9573 47.248 67.872C46.352 67.744 45.4987 67.68 44.688 67.68C42.4267 67.68 40.2507 68.128 38.16 69.024C36.0693 69.92 34.2347 71.1573 32.656 72.736C31.0773 74.3147 29.8187 76.1707 28.88 78.304C27.9413 80.4373 27.472 82.7413 27.472 85.216C27.472 87.4773 27.8773 89.6107 28.688 91.616C29.5413 93.6213 30.7147 95.392 32.208 96.928C33.7013 98.464 35.4933 99.68 37.584 100.576C39.6747 101.472 41.9787 101.92 44.496 101.92C45.4773 101.92 46.6293 101.835 47.952 101.664C49.3173 101.451 50.6187 101.109 51.856 100.64V91.808H42.832V85.792H58.32ZM64.261 71.008C64.261 69.984 64.6237 69.1307 65.349 68.448C66.117 67.7653 66.9277 67.424 67.781 67.424C68.6343 67.424 69.4237 67.7653 70.149 68.448C70.8743 69.1307 71.237 69.984 71.237 71.008C71.237 72.032 70.8743 72.8853 70.149 73.568C69.4237 74.208 68.6343 74.528 67.781 74.528C66.9277 74.528 66.117 74.208 65.349 73.568C64.6237 72.8853 64.261 72.032 64.261 71.008ZM70.405 108H64.965V81.248H70.405V108ZM75.786 86.56V81.184H80.33V74.976C80.33 69.3867 81.6313 65.248 84.234 62.56C86.8793 59.8293 90.6127 58.4 95.434 58.272V63.52C92.106 63.6907 89.674 64.7573 88.138 66.72C86.602 68.6827 85.834 71.4773 85.834 75.104V81.184H94.282V86.56H85.834V108H80.33V86.56H75.786ZM113.627 83.616L110.747 87.456C110.704 87.4133 110.555 87.3067 110.299 87.136C110.043 86.9653 109.702 86.7947 109.275 86.624C108.891 86.4533 108.422 86.304 107.867 86.176C107.355 86.0053 106.822 85.92 106.267 85.92C105.542 85.92 104.816 86.0907 104.091 86.432C103.408 86.7733 103.067 87.4133 103.067 88.352C103.067 89.1627 103.344 89.824 103.899 90.336C104.496 90.848 105.222 91.3173 106.075 91.744C106.928 92.128 107.846 92.5333 108.827 92.96C109.851 93.3867 110.79 93.92 111.643 94.56C112.496 95.1573 113.2 95.9253 113.755 96.864C114.352 97.76 114.651 98.912 114.651 100.32C114.651 102.709 113.819 104.693 112.155 106.272C110.534 107.808 108.294 108.576 105.435 108.576C103.771 108.576 102.128 108.299 100.507 107.744C98.9283 107.147 97.6483 106.293 96.667 105.184C96.9657 104.885 97.2857 104.501 97.627 104.032C98.011 103.563 98.3737 103.115 98.715 102.688C99.099 102.261 99.3977 101.92 99.611 101.664C99.867 101.365 100.016 101.216 100.059 101.216C100.059 101.259 100.208 101.387 100.507 101.6C100.848 101.813 101.275 102.048 101.787 102.304C102.299 102.517 102.875 102.731 103.515 102.944C104.155 103.115 104.795 103.2 105.435 103.2C106.459 103.2 107.334 102.944 108.059 102.432C108.784 101.92 109.147 101.237 109.147 100.384C109.147 99.616 108.848 99.0187 108.251 98.592C107.696 98.1227 106.992 97.696 106.139 97.312C105.286 96.928 104.347 96.544 103.323 96.16C102.299 95.7333 101.36 95.2 100.507 94.56C99.6537 93.92 98.9283 93.1307 98.331 92.192C97.7763 91.2107 97.499 89.952 97.499 88.416C97.499 86.9653 97.755 85.7493 98.267 84.768C98.8217 83.7867 99.5043 82.9973 100.315 82.4C101.168 81.76 102.107 81.312 103.131 81.056C104.155 80.7573 105.136 80.608 106.075 80.608C107.312 80.608 108.635 80.864 110.043 81.376C111.451 81.888 112.646 82.6347 113.627 83.616Z" fill="#F2E9E4"/>
</svg>
