<svg width="95" height="51" viewBox="0 0 95 51" fill="none" xmlns="http://www.w3.org/2000/svg">
<path d="M38.32 27.792V47.248C36.528 48.272 34.3947 49.0827 31.92 49.68C29.4453 50.2347 26.928 50.512 24.368 50.512C20.6987 50.512 17.392 49.936 14.448 48.784C11.5467 47.632 9.05067 46.0533 6.96 44.048C4.86933 42 3.26933 39.5893 2.16 36.816C1.05067 34.0427 0.496 31.0133 0.496 27.728C0.496 24.1013 1.136 20.7947 2.416 17.808C3.73867 14.7787 5.50933 12.176 7.728 10C9.98933 7.824 12.5707 6.13866 15.472 4.944C18.416 3.70666 21.5307 3.088 24.816 3.088C27.0347 3.088 29.36 3.38666 31.792 3.984C34.224 4.53866 36.336 5.34933 38.128 6.416L34.736 12.112C34.096 11.728 33.3493 11.3867 32.496 11.088C31.6853 10.7893 30.832 10.5333 29.936 10.32C29.04 10.1067 28.144 9.95733 27.248 9.872C26.352 9.744 25.4987 9.68 24.688 9.68C22.4267 9.68 20.2507 10.128 18.16 11.024C16.0693 11.92 14.2347 13.1573 12.656 14.736C11.0773 16.3147 9.81867 18.1707 8.88 20.304C7.94133 22.4373 7.472 24.7413 7.472 27.216C7.472 29.4773 7.87733 31.6107 8.688 33.616C9.54133 35.6213 10.7147 37.392 12.208 38.928C13.7013 40.464 15.4933 41.68 17.584 42.576C19.6747 43.472 21.9787 43.92 24.496 43.92C25.4773 43.92 26.6293 43.8347 27.952 43.664C29.3173 43.4507 30.6187 43.1093 31.856 42.64V33.808H22.832V27.792H38.32ZM44.261 13.008C44.261 11.984 44.6237 11.1307 45.349 10.448C46.117 9.76533 46.9277 9.424 47.781 9.424C48.6343 9.424 49.4237 9.76533 50.149 10.448C50.8743 11.1307 51.237 11.984 51.237 13.008C51.237 14.032 50.8743 14.8853 50.149 15.568C49.4237 16.208 48.6343 16.528 47.781 16.528C46.9277 16.528 46.117 16.208 45.349 15.568C44.6237 14.8853 44.261 14.032 44.261 13.008ZM50.405 50H44.965V23.248H50.405V50ZM55.786 28.56V23.184H60.33V16.976C60.33 11.3867 61.6313 7.248 64.234 4.56C66.8793 1.82933 70.6127 0.399998 75.434 0.271999V5.52C72.106 5.69066 69.674 6.75733 68.138 8.72C66.602 10.6827 65.834 13.4773 65.834 17.104V23.184H74.282V28.56H65.834V50H60.33V28.56H55.786ZM93.627 25.616L90.747 29.456C90.7043 29.4133 90.555 29.3067 90.299 29.136C90.043 28.9653 89.7017 28.7947 89.275 28.624C88.891 28.4533 88.4217 28.304 87.867 28.176C87.355 28.0053 86.8217 27.92 86.267 27.92C85.5417 27.92 84.8163 28.0907 84.091 28.432C83.4083 28.7733 83.067 29.4133 83.067 30.352C83.067 31.1627 83.3443 31.824 83.899 32.336C84.4963 32.848 85.2217 33.3173 86.075 33.744C86.9283 34.128 87.8457 34.5333 88.827 34.96C89.851 35.3867 90.7897 35.92 91.643 36.56C92.4963 37.1573 93.2003 37.9253 93.755 38.864C94.3523 39.76 94.651 40.912 94.651 42.32C94.651 44.7093 93.819 46.6933 92.155 48.272C90.5337 49.808 88.2937 50.576 85.435 50.576C83.771 50.576 82.1283 50.2987 80.507 49.744C78.9283 49.1467 77.6483 48.2933 76.667 47.184C76.9657 46.8853 77.2857 46.5013 77.627 46.032C78.011 45.5627 78.3737 45.1147 78.715 44.688C79.099 44.2613 79.3977 43.92 79.611 43.664C79.867 43.3653 80.0163 43.216 80.059 43.216C80.059 43.2587 80.2083 43.3867 80.507 43.6C80.8483 43.8133 81.275 44.048 81.787 44.304C82.299 44.5173 82.875 44.7307 83.515 44.944C84.155 45.1147 84.795 45.2 85.435 45.2C86.459 45.2 87.3337 44.944 88.059 44.432C88.7843 43.92 89.147 43.2373 89.147 42.384C89.147 41.616 88.8483 41.0187 88.251 40.592C87.6963 40.1227 86.9923 39.696 86.139 39.312C85.2857 38.928 84.347 38.544 83.323 38.16C82.299 37.7333 81.3603 37.2 80.507 36.56C79.6537 35.92 78.9283 35.1307 78.331 34.192C77.7763 33.2107 77.499 31.952 77.499 30.416C77.499 28.9653 77.755 27.7493 78.267 26.768C78.8217 25.7867 79.5043 24.9973 80.315 24.4C81.1683 23.76 82.107 23.312 83.131 23.056C84.155 22.7573 85.1363 22.608 86.075 22.608C87.3123 22.608 88.635 22.864 90.043 23.376C91.451 23.888 92.6457 24.6347 93.627 25.616Z" fill="#F2E9E4"/>
</svg>
