<svg width="221" height="69" viewBox="0 0 221 69" fill="none" xmlns="http://www.w3.org/2000/svg">
<path d="M32 6.33334V17" stroke="#F2E9E4" stroke-width="6" stroke-linecap="round" stroke-linejoin="round"/>
<path d="M32 49V59.6667" stroke="#F2E9E4" stroke-width="6" stroke-linecap="round" stroke-linejoin="round"/>
<path d="M13.1467 14.1467L20.6933 21.6933" stroke="#F2E9E4" stroke-width="6" stroke-linecap="round" stroke-linejoin="round"/>
<path d="M43.3066 44.3066L50.8533 51.8533" stroke="#F2E9E4" stroke-width="6" stroke-linecap="round" stroke-linejoin="round"/>
<path d="M5.33331 33H16" stroke="#F2E9E4" stroke-width="6" stroke-linecap="round" stroke-linejoin="round"/>
<path d="M48 33H58.6667" stroke="#F2E9E4" stroke-width="6" stroke-linecap="round" stroke-linejoin="round"/>
<path d="M13.1467 51.8533L20.6933 44.3066" stroke="#F2E9E4" stroke-width="6" stroke-linecap="round" stroke-linejoin="round"/>
<path d="M43.3066 21.6933L50.8533 14.1467" stroke="#F2E9E4" stroke-width="6" stroke-linecap="round" stroke-linejoin="round"/>
<path d="M114.062 53.25C112.375 55.2708 109.99 56.8438 106.906 57.9688C103.823 59.0729 100.406 59.625 96.6562 59.625C92.7188 59.625 89.2604 58.7708 86.2812 57.0625C83.3229 55.3333 81.0312 52.8333 79.4062 49.5625C77.8021 46.2917 76.9792 42.4479 76.9375 38.0312V34.9375C76.9375 30.3958 77.6979 26.4688 79.2188 23.1562C80.7604 19.8229 82.9688 17.2812 85.8438 15.5312C88.7396 13.7604 92.125 12.875 96 12.875C101.396 12.875 105.615 14.1667 108.656 16.75C111.698 19.3125 113.5 23.0521 114.062 27.9688H104.938C104.521 25.3646 103.594 23.4583 102.156 22.25C100.74 21.0417 98.7812 20.4375 96.2812 20.4375C93.0938 20.4375 90.6667 21.6354 89 24.0312C87.3333 26.4271 86.4896 29.9896 86.4688 34.7188V37.625C86.4688 42.3958 87.375 46 89.1875 48.4375C91 50.875 93.6562 52.0938 97.1562 52.0938C100.677 52.0938 103.188 51.3438 104.688 49.8438V42H96.1562V35.0938H114.062V53.25ZM130.625 59H121.562V25.1875H130.625V59ZM121.031 16.4375C121.031 15.0833 121.479 13.9688 122.375 13.0938C123.292 12.2188 124.531 11.7812 126.094 11.7812C127.635 11.7812 128.865 12.2188 129.781 13.0938C130.698 13.9688 131.156 15.0833 131.156 16.4375C131.156 17.8125 130.688 18.9375 129.75 19.8125C128.833 20.6875 127.615 21.125 126.094 21.125C124.573 21.125 123.344 20.6875 122.406 19.8125C121.49 18.9375 121.031 17.8125 121.031 16.4375ZM140.562 59V31.8125H135.531V25.1875H140.562V22.3125C140.562 18.5208 141.646 15.5833 143.812 13.5C146 11.3958 149.052 10.3438 152.969 10.3438C154.219 10.3438 155.75 10.5521 157.562 10.9688L157.469 17.9688C156.719 17.7812 155.802 17.6875 154.719 17.6875C151.323 17.6875 149.625 19.2812 149.625 22.4688V25.1875H156.344V31.8125H149.625V59H140.562ZM179.344 49.6562C179.344 48.5521 178.792 47.6875 177.688 47.0625C176.604 46.4167 174.854 45.8438 172.438 45.3438C164.396 43.6562 160.375 40.2396 160.375 35.0938C160.375 32.0938 161.615 29.5938 164.094 27.5938C166.594 25.5729 169.854 24.5625 173.875 24.5625C178.167 24.5625 181.594 25.5729 184.156 27.5938C186.74 29.6146 188.031 32.2396 188.031 35.4688H179C179 34.1771 178.583 33.1146 177.75 32.2812C176.917 31.4271 175.615 31 173.844 31C172.323 31 171.146 31.3438 170.312 32.0312C169.479 32.7188 169.062 33.5938 169.062 34.6562C169.062 35.6562 169.531 36.4688 170.469 37.0938C171.427 37.6979 173.031 38.2292 175.281 38.6875C177.531 39.125 179.427 39.625 180.969 40.1875C185.74 41.9375 188.125 44.9688 188.125 49.2812C188.125 52.3646 186.802 54.8646 184.156 56.7812C181.51 58.6771 178.094 59.625 173.906 59.625C171.073 59.625 168.552 59.125 166.344 58.125C164.156 57.1042 162.438 55.7188 161.188 53.9688C159.938 52.1979 159.312 50.2917 159.312 48.25H167.875C167.958 49.8542 168.552 51.0833 169.656 51.9375C170.76 52.7917 172.24 53.2188 174.094 53.2188C175.823 53.2188 177.125 52.8958 178 52.25C178.896 51.5833 179.344 50.7188 179.344 49.6562Z" fill="#F2E9E4"/>
</svg>
